<?xml version="1.0" encoding="UTF-8"?>
<svg version="1.1" viewBox="0 0 900 900" xmlns="http://www.w3.org/2000/svg">
 <g transform="translate(0 -152.36)">
  <path transform="translate(0 152.36)" d="m484.12 21.193c-2.8569-0.0055-5.7136-0.0039-8.5703 0.0078-19.045 0.07801-38.086 0.57114-57.084 1.9141-19.278 1.6388-38.591 3.7025-57.527 7.7598-9.2643 2.2816-19.595 5.5377-24.977 14.023-3.8664 8.769-2.8881 19.49 1.8066 27.758 1.4591 3.2963 5.598 9.5124 1.3906 11.742-3.0082 4.037-3.4089 9.4502-3.959 14.324-0.76728 7.9058 5.2969 13.824 10.23 19.174-2.498 3.3174-5.0977 6.5604-7.4883 9.957-3.0777 3.4108-4.195 7.9688-2.1875 12.229 2.0311 6.7248 7.0464 11.819 12.012 16.506 3.6196 1.5303-2.5108 13.479 3.2441 20.52-3.1749 2.7242-8.6457 0.71837-11.641 4.3965-7.0207 6.8529-5.7692 18.85-0.16016 26.188 2.3671 4.7815 9.8681 5.2745 10.896 10.467-4.3084 9.0191-14.023 13.417-22.723 17.219-16.645 6.8229-34.203 11.384-50.25 19.674-7.2027 3.9246-15.407 7.6465-19.682 15.033-5.6996 11.809-8.7472 24.78-10.602 37.709-1.9736 4.9808 2.3532 10.187-0.0645 14.445-4.1241 15.333-0.18749 24.651-2.4238 37.697 0.80503 42.862 0.20997 85.737-0.28711 128.6-1.3523 67.671-1.8713 135.36-1.9258 203.04-0.17425 20.51 0.91209 41.002 0.69922 61.514 0.25995 8.2981-0.4594 16.796 1.4297 24.928 3.7397 2.2269-2.3195 1.8006-1.1152 5.2363-0.41125 11.492 0.30994 23.005 1.002 34.477-0.0258 5.7941 2.4436 11.588 7.8594 14.291 5.18 2.1856 9.8247 5.3941 14.203 8.9062 4.5829 3.8116 10.457 5.3931 15.209 8.8945 4.6322 4.8879 10.8 7.8989 17.094 10.08 7.6313 3.1845 16.068 2.8623 23.859 5.3809 7.7168 4.1934 16.709 4.1366 25.17 5.5977 17.88 3.123 36.086 2.863 54.123 4.3164 5.549 0.0497 10.831 2.5346 16.398 1.832 5.3719-1.4252 11.022-1.2743 16.4 0.0996 2.7901 0.6043 5.6467 0.84076 8.4883 1.0645 22.635 1.3315 45.318 0.083 67.973 0.23047 16.206 0.182 32.415-0.19578 48.572-1.5469 6.9285-0.1845 13.624-1.9796 20.5-2.5957 12.798-0.7199 25.325-3.4867 37.939-5.5488 8.7939-0.8774 17.467-2.9264 25.535-6.5898 5.0227-2.6676 10.664-3.7487 15.816-5.9082 4.5821-3.0199 10.751-6.3576 10.717-12.643 1.3482-45.686 2.3024-91.387 3.6387-137.07 1.0322-28.628 2.4819-57.294 1.2695-85.938-1.688-6.2201 1.4164-12.373 0.89454-18.627-2.7375-3.7855-1.0886-7.7602 0.55859-11.662 1.0714-4.9838 2.3042-10.813-0.35352-15.465-3.4321-4.3797 2.6676-9.7602 1.2402-14.994 0.86291-25.458-0.0857-50.937-0.10352-76.402-0.41247-17.937 0.96792-36.038-1.8379-53.832 0.024-0.36992-0.0104-0.71929-0.0742-1.0527 0.33815-11.897 0.0271-39.119 0.43946-44.604-0.14171-6.4708 0.16205-20.665-1.2227-29.02 1.1008-0.4483 1.9703-1.7641 1.4141-3.7207-0.39322-12.747-2.1843-25.42-2.5898-38.176-0.22489-10.346-1.9381-21.246-8.8144-29.434-4.0024-4.8394-8.0918-10.503-14.203-12.711-4.8081 1.6503-1.8701-3.1815-3.1309-5.5078-2.9926-5.5956-9.4598-7.4058-15.094-9.043-5.8012-2.8188-11.552-5.924-17.914-7.3476-13.568-6.623-6.7166-2.5068-13.568-6.623-7.5708-1.8613-13.256-7.7848-17.129-14.273-2.441-3.813-5.1498-10.544 0.47266-12.844-0.99112-4.7394 5.565-4.6237 6.2676-8.6543 1.0583-8.2833 1.5389-17.798-3.7734-24.816-2.5504-4.4113-9.6023-3.571-10.971-8.7617 0.0336-5.6142-2.0408-11.838 1.0938-16.984 3.7223-4.4093 6.4334-9.9478 6.2949-15.84-0.23984-4.5251-0.56104-10.271-4.6367-13.047-0.46793 0.0636-0.85948 0.18756-1.1875 0.36133-0.15148-0.46617-0.29913-0.93647-0.47461-1.3828-0.3683-0.48149-0.80982-0.85313-1.3008-1.1387 1.3805-1.5885 0.65327-5.2236 3.0078-7.1641 4.5416-3.2901 5.0467-9.1408 5.0176-14.289-0.0955-5.5113 0.30665-12.684-4.9941-16.047-7.9173-0.89181-3.8662-8.5077 0.79102-10.955 4.3768-6.8294 4.5182-15.524 3.1953-23.297-0.71563-6.1951-5.5576-10.608-7.3828-16.389-1.2651-6.326-8.0514-8.7747-13.504-10.373-16.805-4.2717-34.301-4.4385-51.531-5.0469-8.5655-0.11908-17.136-0.20603-25.707-0.22266z" fill="none"/>
  <path d="m434.48 1029.5c-5.3787-1.3739-11.028-1.5252-16.4-0.1-5.5679 0.7026-10.849-1.7807-16.398-1.8304-18.037-1.4534-36.244-1.1948-54.124-4.3178-8.4611-1.4611-17.453-1.4028-25.17-5.5962-7.7909-2.5186-16.227-2.1979-23.858-5.3824-6.2941-2.1812-12.463-5.191-17.095-10.079-4.7523-3.5014-10.625-5.0842-15.208-8.8958-4.3784-3.5121-9.0243-6.7205-14.204-8.9061-5.4157-2.7028-7.884-8.4968-7.8582-14.291-0.69201-11.471-1.4128-22.985-1.0016-34.477-1.2043-3.4357 4.8546-3.0091 1.1148-5.236-1.8891-8.1317-1.1692-16.629-1.4291-24.928 0.21287-20.511-0.87488-41.002-0.70063-61.513 0.0545-67.683 0.57411-135.37 1.9264-203.04 0.49708-42.863 1.0912-85.738 0.28615-128.6 2.2363-13.046-1.6991-22.365 2.4251-37.697 2.4177-4.2581-1.9092-9.4642 0.0644-14.445 1.8543-12.929 4.9026-25.9 10.602-37.709 4.2748-7.3867 12.479-11.108 19.681-15.032 16.047-8.2901 33.604-12.852 50.249-19.675 8.7001-3.8022 18.415-8.1985 22.724-17.218-1.0284-5.1923-8.5311-5.6868-10.898-10.468-5.6091-7.3379-6.8605-19.334 0.16025-26.186 2.9949-3.6781 8.4656-1.6734 11.641-4.3975-5.7549-7.0404 0.37564-18.989-3.2439-20.519-4.9654-4.6869-9.9793-9.7814-12.01-16.506-2.0075-4.2597-0.89112-8.8177 2.1866-12.229 2.3906-3.3966 4.9897-6.6397 7.4878-9.9571-4.9335-5.3493-10.997-11.267-10.23-19.172 0.55007-4.874 0.95073-10.288 3.9589-14.325 4.2073-2.2298 0.0697-8.4465-1.3894-11.743-4.6947-8.2675-5.6743-18.989-1.8079-27.758 5.382-8.4858 15.712-11.743 24.977-14.024 18.936-4.0573 38.249-6.1194 57.528-7.7582 30.397-2.1487 60.905-2.1232 91.36-1.6998 17.231 0.60835 34.728 0.77493 51.533 5.0466 5.4525 1.5984 12.238 4.0466 13.503 10.373 1.8252 5.7803 6.6671 10.194 7.3827 16.389 1.3228 7.7733 1.1817 16.468-3.1951 23.297-4.6572 2.4473-8.708 10.064-0.79069 10.956 5.3008 3.3624 4.8986 10.535 4.9941 16.046 0.0291 5.1482-0.47599 10.998-5.0176 14.288-3.4662 2.8566-0.24202 9.3978-6.9176 7.6526-10.335 1.1367-19.698 6.0943-29.68 8.6998-27.466 8.1625-55.48 14.732-83.959 18.136-13.787 1.7078-27.581 4.6954-41.534 4.0776-4.263-0.31197-9.3916-0.70464-12.9 1.9563 3.9441 2.8422 9.6103 3.122 14.451 3.9223 19.295 1.7569 38.71 1.1689 58.059 1.1294 24.636-0.21664 49.304-1.9519 73.549-6.4675 5.8778-1.2552 12.032-1.4684 17.731-3.3989 5.2803-2.5346 10.427-7.8626 9.4245-14.181 0.47541-3.7012-3.3912-11.504 1.7294-12.2 4.0757 2.7758 4.3967 8.5202 4.6366 13.045 0.13847 5.8921-2.5718 11.432-6.2941 15.841-3.1346 5.146-1.0602 11.369-1.0938 16.983 1.3684 5.1907 8.4201 4.3509 10.97 8.7622 5.3123 7.0182 4.8311 16.533 3.7728 24.816-0.70255 4.0306-7.2576 3.9147-6.2665 8.6541-5.6224 2.3002-2.9143 9.0318-0.47329 12.845 3.8725 6.4887 9.5587 12.412 17.13 14.273 2.8492 0.50127 7.8722 4.4731 2.4134 5.2328-3.251 1.4646-8.1955 2.1789-8.4294-2.739-2.4166-1.7578-6.4783-0.26127-7.873-4.198-4.0689-3.7765-6.8112 3.2272-2.1549 4.6635 5.378 1.5647 9.4221 7.8193 15.459 6.3055 3.1395-0.86828 2.908 6.3399 6.6156 3.053-1.9877-5.291 2.8632-8.0488 7.5378-5.6958 6.3618 1.4237 12.114 4.5295 17.915 7.3483 5.6339 1.6372 12.1 3.4471 15.093 9.0427 1.2607 2.3263-1.6766 7.1586 3.1315 5.5083 6.1114 2.2083 10.2 7.8705 14.203 12.71 6.8764 8.1875 8.5902 19.089 8.8151 29.435 0.40556 12.756 2.1962 25.428 2.5894 38.176 1.28 4.5026-4.9823 5.6266-4.2646 0.54103-0.85596-13.946-1.0219-28.105-4.4803-41.72-2.544-7.1838-6.0877-14.8-12.606-19.173-4.9314-0.92659-8.6582-5.1927-14.168-4.3146-5.0909-0.24213-9.5901 2.6022-14.641 2.8167-22.968 2.8609-46.176 2.9982-69.167 5.6396-12.604 1.0447-25.279 1.1403-37.888 1.7904-4.2175 0.22502-8.2131 6.0972-11.955 2.196-2.9783 1.1772-5.4176 2.0946-7.8177-0.41634-7.216-1.4478-14.793-1.5898-22.046-0.32025-4.1095 3.8156-9.1065-0.0103-13.925 0.29949-15.64-1.3245-31.414 0.217-47.006-1.7269-4.4318-3.5551-8.4285 3.4968-13.107-0.20095-6.079-2.5352-12.59 0.0265-18.876-0.91088-10.491-1.0433-20.951-2.4885-31.507-2.8174-10.318-0.76313-20.889 0.10566-30.998-2.4348-6.0822-3.4224-13.427-3.877-20.232-2.9547-6.049-0.0575-3.1008 9.531-9.9697 7.5216-4.0526-1.2769-5.778 3.1542-8.3489 3.8773-4.7674-1.9595-9.3117-7.3296-4.8737-12.06 6.8091-9.7188 17.062-16.443 27.413-21.904 18.113-8.3631 37.25-14.422 56.689-18.827 10.62-2.5698 20.417-8.284 28.185-15.908 4.2827-5.6786-5.6412-6.5024-9.3167-6.7379-4.0916-1.0439-8.7824-0.10361-8.1184 5.1583-3.6439 7.6103-11.529 12.846-19.697 14.441-7.7904 0.94861-0.41241-7.0392 2.4112-8.7889 3.106-2.9157 7.734-8.1353 3.7459-12.145-5.5125-4.0893-5.689 7.0267-9.158 9.595-4.0575 5.5143-10.291 8.7423-15.123 13.479-9.7599 5.5208-21.174 6.8649-31.32 11.511-12.846 6.2926-14.6 9.3658-17.545 10.617-4.8182 2.8332-5.7016 8.5034-9.9802 11.573-1.677 5.0278-7.6492 8.5659-8.0572 14.855 0.3771 5.2199 6.865 7.2259 8.0403 12.212 1.3982 6.4302 0.38614 13.609 4.2012 19.378 3.5739 8.0434 0.46898 17.251 3.5066 25.39 3.7749 5.6114 2.849-8.5176 5.2268-2.6784 1.0273 11.542-0.42597 23.131-0.38614 34.694-1.1304 53.005-1.65 106.02-2.5922 159.03-1.1133 68.231-1.0242 136.48-2.514 204.7 0.0791 9.1014-1.6185 18.329 0.0645 27.343 2.8841 4.4738-0.50282 9.9921-0.0416 15.056-0.93843 15.643-2.0452 31.34-1.3706 47.012-0.0647 4.5315 1.6667 10.116 7.2081 9.4947 15.925 3.895 31.146 10.656 47.451 12.957 17.267 1.7244 34.531 3.5182 51.77 5.4727 14.932 1.2038 30.092 0.5756 44.776 3.9506 12.997 1.6515 26.139 0.7321 39.2 1.1285 30.483 0.15 61.056 0.9227 91.455-1.8138 7.2607-0.4504 14.227-3.9566 21.597-2.4298 4.8961 1.5486 7.9445-3.2 12.778-2.99 14.136-1.6255 28.338-2.6129 42.479-4.158 7.6348-0.841 14.377-5.2269 19.842-10.386 5.3409-6.4597 4.7675-15.413 5.4047-23.292 0.77964-30.963 0.82291-61.94 1.4055-92.908 1.4221-84.997 2.5526-170 4.5211-254.99 0.1058-15.694-1.707-31.413-0.57845-47.094-0.31961-4.9632 3.9782-2.7933 3.7472 0.76026 2.8058 17.794 1.4256 35.895 1.838 53.833 0.0178 25.466 0.96599 50.943 0.10308 76.402 1.4274 5.2339-4.6711 10.616-1.239 14.995 2.6578 4.6515 1.4253 10.48 0.35386 15.464-1.6472 3.9019-3.296 7.876-0.55858 11.662 0.52186 6.2536-2.5838 12.408-0.89586 18.628 1.2124 28.644-0.23723 57.31-1.2694 85.938-1.3362 45.687-2.2907 91.388-3.639 137.07 0.0339 6.285-6.134 9.6228-10.716 12.643-5.1521 2.1595-10.793 3.2404-15.816 5.908-8.0678 3.6634-16.742 5.7125-25.536 6.5899-12.615 2.0621-25.141 4.8291-37.939 5.549-6.8757 0.6161-13.571 2.4098-20.499 2.5943-16.157 1.3511-32.366 1.7289-48.573 1.5469-22.655-0.1474-45.338 1.1019-67.973-0.2296-2.8416-0.2237-5.6982-0.4614-8.4884-1.0657zm-163.28-46.09c-1.7774-5.5985-7.725-8.4314-12.821-10.371-3.0873-1.7277-3.0094-8.0842-7.6995-4.6357-2.2721 0.58497-4.1066 2.2338-0.31074 2.0332 3.8853 3.6251 7.8493 7.6342 12.615 10.436 2.0399 0.70059 6.7894 5.89 8.2164 2.5384zm-1.532-33.769c-2.5504-3.3217-4.3761 4.6259-0.12505 0.65164zm-6.339-22.885c3.7083-4.7299-6.5584-1.2777-2.5712 2.3771 1.0667-0.50027 1.7932-1.5249 2.5712-2.3771zm6.9155-3.1604c-2.7049-5.0035-4.6744 3.5785-0.0448 2.1812 0.53098-0.6114 0.26664-1.5157 0.0448-2.1812zm7.0314-23.925c-0.25781-3.6242 1.0923-10.956-1.3001-12.235-1.6834 7.6773-1.5805 15.696-1.1605 23.514 1.1994 5.7322 2.1928-4.1396 2.1769-5.9941 0.12995-1.7596 0.22171-3.522 0.28373-5.2853zm-19.109-1.0235c0.79574-5.9658-4.3331 3.0155-0.54617 3.3088 0.45217-1.0469 0.43132-2.198 0.54617-3.3088zm20.124-27.826c0.0468-2.2082-0.37229-11.464-2.7171-5.8686-0.45641 5.1277-0.53642 10.582 0.73574 15.533 2.0041-2.4232 1.9068-6.595 1.9814-9.6644zm-11.905-18.693c-0.12632-5.7074 0.51823-11.567-0.86096-17.149-4.0088-0.4708-2.9224 7.6741-3.3198 10.893-0.80654 3.2926 1.0469 9.7214-1.8964 11.249-1.3511-7.6357-0.80073-15.522-1.0282-23.264-0.1524-15.562 0.8483-31.167-0.38213-46.698-2.3864-4.9947-3.3737 5.8527-3.1424 8.1705-0.6722 21.317-1.3607 42.649-1.1906 63.979-0.40181 2.8511 0.66644 11.312 3.3777 4.9096-0.31544-3.3429 3.3463-5.6469 3.6784-1.0755-1.0814 2.74 2.7924 10.869 3.9831 5.1303 0.59564-5.3578 0.69552-10.759 0.78137-16.144zm0.29087-24.814c0.35321-17.46 0.23599-34.952-0.61863-52.396-1.6164 1.8464-1.7071 10.047-2.3569 14.165-1.1681 13.31-1.2768 26.801 0.48529 40.059 0.40234 4.0454 2.7931-0.23665 2.4902-1.8289zm-5.5997-82.01c0.24852-13.338 0.47527-26.677 0.76843-40.015 1.3489-6.048 4.8232 0.10561 3.778 3.301 0.28456 2.8401-0.77978 8.1022 1.4013 9.5244 1.5351-6.8274 1.1053-13.984 0.78913-20.936-0.60815-4.0412-4.9527 5.5607-5.1383-0.86599-0.83552-11.49 0.023-23.035 0.30418-34.538-0.64863-2.3894 1.6138-7.9315 3.4114-3.5196-0.87447 2.1063 0.37782 11.295 2.5084 5.7654 0.14702-3.4906 2.7886-12.578-3.2116-10.917-3.5959 1.07-1.6745-6.9598-5.7022-3.6855-1.8706 4.6256-0.96131 10.13-1.4411 15.139-0.68791 20.84-0.18347 41.716-1.39 62.538-1.2916 8.2533-0.82221 16.712-1.1052 25.056 0.13411 9.7958-0.60808 19.684 0.7067 29.415 2.9973 4.2453 3.2844-5.0637 3.4207-7.1092 0.5938-9.7049 0.69469-19.434 0.90021-29.153zm6.8025-3.2245c-0.18077-7.2273-0.0117-14.54-1.2673-21.68-3.5968 1.685-1.3286 10.087-2.2604 14.363-0.23603 11.272-1.1473 22.708 1.0468 33.846 2.2645 1.5818 1.7132-6.9297 2.1609-9.4314 0.29162-5.6937 0.35148-11.397 0.32008-17.097zm-16.437 14.318c-2.4119-4.6969-3.3442 3.5327 0.19873 1.1192l0.0491-0.5039-0.24787-0.61532zm30.094-3.1953c-1.8601-3.0926-6.2644 2.4393-1.4752 1.6106 0.84185 0.14688 2.2008-0.62127 1.4752-1.6106zm-28.316-54.415c-0.24692-2.2835 0.61253-10.238-1.9636-9.1728-1.1954 5.7943-0.28808 11.885-2.0236 17.629 1.9015 4.3956 4.5998-3.9478 3.9078-6.2813l0.0471-1.0511 0.0322-1.1236zm15.258-8.0244c-0.89629-5.672-6.5257 1.883-1.4466 1.8333 0.76994-0.29617 1.2446-1.0707 1.4466-1.8333zm-16.145-17.514c-2.0204-5.9413-1.2691 5.2041-1.3942 7.3702-0.29696 2.1342 0.41631 6.6762 1.3875 2.1382 0.83206-3.0845 0.81844-6.4231 7e-3 -9.5084zm16.946 7.8738c-2.1132-3.2092 5.2933-6.3712-0.5199-7.0805-6.5884-0.11368-1.8378 12.602 0.78414 9.8786 0.0306-0.93922-0.0931-1.8767-0.26424-2.7981zm0.38787-11.886c-3.9121-6.1038-3.9454 5.9694 0 0zm7.9237-25.449c-2.5504-3.3217-4.3761 4.6259-0.12505 0.65164zm-22.491-8.6226c0.85503-2.7418-2.6794-8.4186-3.8241-3.228-1.0268 2.5192-0.18406 11.696 3.4448 7.404 0.43692-1.3437 0.41639-2.7798 0.37933-4.176zm14.172-28.496c0.67944-5.6243-6.9772-4.1109-4.7437 0.91899 1.444 5.4953 5.0347 4.8733 4.7437-0.91899zm-15.451-0.0289c-0.46759-7.0981-4.387 6.3481-0.12112 0.92299zm22.186-3.9618c-1.3449-3.09-7.2482-1.1086-2.1746 0.63419 0.93051 0.73873 2.6759 1.4743 2.1746-0.63419zm-12.381-9.0063c-2.1595-1.4294-4.771 1.4528-0.95746 0.95737 0.57096 0.18698 2.7808-0.39184 0.95746-0.95737zm-9.0132-13.18c-2.4119-4.6969-3.3442 3.5327 0.19873 1.1192l0.0491-0.5039-0.24787-0.61532zm-1.4197-15.418c-2.3265 0.72218 0.37986 6.5345 0.4317 1.2872l-0.1256-0.7513-0.30604-0.53588zm27.568 1.1555c-3.9121-6.1038-3.9454 5.9694 0 0zm-9.1123-16.508c-0.89628-5.672-6.5257 1.883-1.4466 1.8333 0.76994-0.29618 1.2446-1.0707 1.4466-1.8333zm0.39619-7.2634c-2.4119-4.6968-3.3442 3.5327 0.19873 1.1192l0.0491-0.5039-0.24787-0.61532zm6.7682-0.29714c-0.96406-4.9477-7.3396-0.8743-2.8561 1.6839 1.1297 0.56701 3.38-0.0548 2.8561-1.6839zm-7.5605-10.004c-4.5454-9.4257-0.9494 8.5056 0 0zm-4.9566-10.169c-0.32905-3.1691 0.7361-9.748-2.5824-10.606-2.302 4.7445-1.4697 10.336-1.5546 15.469-0.64018 2.3446 1.6372 9.0445 3.2247 3.6965 0.69228-2.7936 0.82535-5.6938 0.9123-8.5589zm4.1642-31.827c-2.0321-4.2436-6.5208 1.5212-1.4912 1.5847 0.82346 0.14084 2.2082-0.59222 1.4912-1.5847zm176.7-49.127c-1.5942-4.186-4.1821 1.3515-0.42749 1.4597l0.2222-0.34047zm103.01-3.263c-2.5504-3.3217-4.3761 4.6259-0.12505 0.65164zm19.017-0.69884c-0.83708-6.3365-5.9951 2.6976-0.96942 2.1895 0.70353-0.48015 0.9621-1.3825 0.96942-2.1895zm-97.462-1.6559c20.574-0.89393 41.21-1.0637 61.712-3.124 8.27-1.2642 16.824-1.0567 24.892-3.4085 2.6155-3.0854-7.3053-1.8881-9.5743-2.2784-5.3438 0.0915-10.708-1.0198-16.026-0.30018-4.3825 1.5267-9.2748 0.19344-13.843 0.0599-20.619-2.5785-41.381-0.30295-62.06-0.0181-34.117 0.98143-68.253 1.0177-102.37 1.8518-6.2331 1.2447 5.3363 3.0894 7.2703 3.2079 12.664 1.1294 25.306 2.5086 37.932 4.0138 6.5218 0.8661 13.053 0.11256 19.584 0.10935 9.0547 0.26952 18.082 2.2158 27.146 0.97206 8.4416-0.45902 16.89-0.78489 25.339-1.0856zm105.62-4.1499c4.4038 1.7369 9.6161-0.475 14.025-1.7753 3.2797-0.58883 3.1281-4.546 6.5636-4.4176 4.1579-6.7324-7.3192-3.8994-9.346-0.57923-4.2105 2.1398 3.9168 2.9322-0.67485 3.4624-3.664-4.2589-10.203 0.47911-13.32-3.3093 1.942-0.63643 6.5982-4.0802 2.4186-5.6171-3.9089 0.34877-8.0558 0.89894-10.926-1.9623-3.075 3.1632 1.2297 9.0645-3.2386 11.288 2.8875 2.5958 8.9147 0.95276 10.168 5.9645 1.5177-0.37748 2.5234-4.4524 4.331-3.0542zm57.818-2.1405c-0.84753-3.6417 5.8302-10.244 0.53767-11.736-3.5496 3.381-6.5512 7.4489-8.9756 11.708-1.6049 4.0104 9.8313 4.3623 8.4379 0.028zm-9.8351-2.598c1.3006-2.0658 4.2641-7.643-0.82345-5.8445-2.1192 2.0428-0.80729 7.878-5.6248 4.9992-4.9772-1.5482 2.3002 4.6916 3.5244 5.843 1.262-1.4551 1.9993-3.3238 2.9239-4.9977zm-261.37-2.926c0.57791-2.0282-3.5284-2.959-3.4485-5.211-1.0347 2.2575-6e-3 10.177 3.4485 5.211zm-7.9237-1.5847c-2.0321-4.2436-6.5208 1.5212-1.4912 1.5847 0.82346 0.14084 2.2082-0.59222 1.4912-1.5847zm248.8-1.2313c-1.4053-1.5147-4.8388-4.9022-3.7453-0.37977-0.13474 1.6561 5.525 2.3818 3.7453 0.37977zm-241.67-6.6924c-3.9121-6.1038-3.9453 5.9694 0 0zm251.97-0.8c4.0804-5.8469-8.3698 1.0398-2.6374 2.1896 1.0315-0.51985 1.896-1.3156 2.6374-2.1896zm-142.63-0.75167c-2.1493-4.82-8.8275-4.8077-13.366-5.8367-6.9531-0.7725-14.056-1.1453-21-0.12993-2.8038 4.6321 6.7975 4.5116 9.9074 5.2786 7.3504 0.93859 14.761 2.2418 22.183 1.877 0.73561-0.20183 2.0501-0.26832 2.2759-1.1891zm134.7-0.9266c-4.5297-3.172-3.6667 5.7836 0 0zm-231.37-2.2836c-0.35148-6.5321-8.4805-0.91633-2.7319 1.9079 2.6301 2.1388 2.8787 0.68879 2.7319-1.9079zm216.57-1.9809c-1.9587-0.80458-0.0481 8.1549 0.32972 1.9809l-0.0824-1.0555-0.24729-0.92547zm-30.367-1.0391c5.8107-0.31393 11.621-0.62787 17.432-0.9418-0.19393-2.8741 0.82114-6.337-0.98526-8.7161-3.6256-1.4999-6.6606-1.6384-6.8816 2.8761-4.4622-0.74317-8.2214-4.6132-12.919-5.3994-4.5102-3.1148-6.8911-8.1815-9.3157-12.886-4.0206-3.4284-10.228-1.8388-15.077-1.4714-5.2487 1.4512-6.3001 8.4856-12.141 9.0166-8.9373 2.6549-18.248 4.5911-27.604 4.5045-2.6778 0.40538-5.7094-6.0956-5.873-0.3266-1.9028 4.8872-10.39 1.1657-14.794 1.9407-8.5878-0.69319-17.411-1.237-25.592-4.0708 0.61946-1.5146 5.9208-4.1792 1.6372-6.5263-3.17-3.2583-12.747-2e-3 -7.4101 4.4782 3.5634 1.4711-4.4294 0.20954-5.8736 0.0277-8.6693-1.4037-16.343-5.8521-24.569-8.6058-2.2615-1.2601-10.374-1.9868-5.2662 1.8358 9.1734 5.209 19.329 8.5714 29.52 11.183 16.216 3.2023 32.737 5.634 49.31 4.5007 11.435-0.48543 22.867-1.2612 34.252-2.3484 5.7529 0.54367 9.162 5.9971 13.492 9.1931 3.9996 4.9578 10.013 3.4013 15.414 2.6831 4.4073-0.40309 8.8238-0.70575 13.242-0.94736zm18.644-16.944c3.3663-5.5329-8.4239-7.4352-5.7354-1.1487 1.4205 1.2581 4.0657 3.0642 5.7354 1.1487zm-15.443-8.0832c2.3909 4.289 9.8266 1.5242 12.506-1.2321 1.29-5.656-3.7854-10.768-2.694-16.454 3.214-3.2973 0.82876-3.7358-2.3073-2.2498-3.4641 0.73103-13.448 4.078-6.2325 7.4956 1.8627 1.4729 8.7168 3.233 7.356 5.2339-7.5391-1.1724-13.694-7.259-21.511-6.9704-6.2723 0.53898-12.755 3.3762-18.987 1.2163-1.5938-4.6912 7.6533-5.198 11.087-6.6724 6.2909-2.2213 13.302-4.7041 17.31-10.363 0.66518-5.6222 7.0196-0.61417 8.4638-5.0012 3.9053 0.61067 7.1654 3e-3 9.6314-3.1473 2.0144 0.21827 7.5964-1.8022 3.8392-3.4233-4.4445-0.0157-10.25 5.819-13.61 0.83052-5.2037-1.9328-9.0649 3.5771-12.911 6.1716-8.7219 5.6564-19.523 7.3636-27.651 14.067-6.8884 4.0891-14.58 6.7039-22.3 8.6992-1.9977-0.60821 1.3813-6.2703-3.1898-5.6944-2.2445 3.0582-7.4374-0.0262-8.6205 3.4369 1.1356 2.4833 4.1912 2.7607 6.4005 3.8694-8.3422-0.16159-16.414 2.6824-24.021 5.8172-4.4662 4.7633 5.3583 2.6264 7.7199 1.3927 12.911-1.6147 25.954-1.86 38.889-3.2988 9.9549-0.82209 19.878-2.1059 29.832-2.8472 4.5643-0.65952 5.0714 4.4013 0.53868 4.9609-3.8456 3.4566 1.214 3.1225 3.5744 3.5137 2.4335 3.3404 4.7341 3.1023 5.5114-1.2521 0.80203-0.55671 1.0243 1.6418 1.3765 1.901zm-110.96-18.345c4.7542-0.64751 9.5084-1.295 14.263-1.9425-14.386-0.45678-28.824-1.9153-43.193-0.61214-4.6236 1.514-7.7205-2.5157-12.204-0.13844-14.154 0.66346-29.212-1.4858-41.109-9.6681-4.2192-2.5314-5.4133-8.7049-10.8-9.4305-5.8452 0.33219-0.96434 7.8663 1.2653 10.165 6.3066 7.8263 16.065 12.24 26.015 12.706 8.0928 0.69498 16.341 0.61977 24.276 2.3271 13.878-0.11255 27.728-1.6892 41.487-3.4058zm19.809-4.2699c-1.139-2.8339-7.766 2.1261-2.3771 1.535 0.9349-5e-3 2.2908-0.40568 2.3771-1.535zm11.39 0.45245c-2.1595-1.4293-4.771 1.4528-0.95745 0.95738 0.57098 0.18699 2.7808-0.39186 0.95745-0.95738zm97.035-1.4641c3.0738-0.92208 2.8042-8.6753 1.5436-8.4336 0.59021 3.8942-7.9196 6.6117-4.2325 9.2937 0.93074-0.16478 1.8069-0.53458 2.6889-0.86005zm-139.41-20.1c-0.46146-4.7465 0.14946-9.7047-1.1723-14.299-5.1115-1.7358-2.3074 7.6973-2.6664 10.819 0.70819 3.0272-1.2482 10.437 2.608 10.615 1.4146-2.0274 1.2271-4.7724 1.2306-7.1344zm37.859 4.017c-0.28101-6.4678-0.38251-12.941-0.53384-19.413h-23.771c0.19257 6.286-0.53829 12.677 0.75971 18.867 1.8434 5.7078 8.964 4.4839 13.632 4.5208 3.1563-0.667 10.453 1.2092 9.9133-3.9751zm-49.592-6.7352c-0.56804-3.8634 2.4769-11.96-3.0046-12.597-3.6698 3.2698-1.3005 9.2049-2.8146 13.512-2.9673 4.5439-1.8721-5.7772-2.5299-7.8674 0.62713-3.1502-3.9074-8.584-4.8418-2.8507-1.2369 5.943-0.73506 12.058-0.96686 18.088 3.337-0.42369 7.2249-2.3221 10.244-0.17139 3.3644 3.7428 3.7612-6.5104 3.9135-8.1137zm58.87 6.7352c0.83775-5.7354 0.39406-11.883-1.7929-17.271-3.8267-0.18773-1.9268 8.1497-2.3032 11.345 0.0936 3.0084-0.40874 14.24 4.0961 5.926zm9.205-6.8287c0.39713-2.1765-0.72869-8.5002 1.9031-8.2498 2.2358 5.3752 0.31622 11.456 2.1014 16.895 5.2639 3.0755 3.452-6.905 3.4804-10.028-0.18286-3.4696-0.36573-6.9392-0.5486-10.409-4.2932-0.24535-8.5864-0.49071-12.88-0.73607 0.75564 6.8045 0.81262 13.76 2.7093 20.372 3.1396 4.8404 3.1893-4.738 3.226-6.8654l8e-3 -0.97813zm28.41 0.40883c-1.1562-4.7941-0.46735-9.9089-1.4879-14.605-2.7278-2.9167-7.0235-0.96111-6.1786 3.0317-4.036 0.0443-3.826 3.706 0.30939 3.6731 2.4809 4.4713-0.69476 10.282 2.1554 14.805 4.6574 5.1519 7.3222-2.9766 5.2016-6.9044zm-112.96-1.5038c-1.3595-3.9293 1.0577-11.113-2.9262-12.945-2.6564 3.5788 0.36293 9.4757-3.0266 12.416-2.7044-3.3514-0.52994-12.002-7.733-10.033-5.2974 0.50954-2.7456 7.649-3.0127 11.299-0.50796 2.5245 1.9799 7.9981 2.9976 2.8278 1.2279-6.0452 3.6654 2.2131 5.9343 1.6431 3.5142-4.0181 3.5166 0.0761 4.2676 2.9793 5.516 3.7089 3.5703-5.5257 3.4991-8.188zm-12.597-2.6039c-2.2813-2.5867 1.4439-6.5066 1.891-1.9845-0.0926 1.6026-0.32836 7.1119-1.891 1.9845zm111.25 0.57152c-0.48414-3.0631 0.31586-8.9995-2.0514-10.359-1.7332 6.2768-1.9312 12.973-1.5948 19.455 2.9223 6.412 4.1109-2.15 3.6461-9.0962zm20.76 5.5981c0.23897-3.908-4.0225-3.9189-3.1695 0-0.45989 4.1023 2.8699 4.2348 3.1695 0zm4.7542 1.4912c-4.5297-3.172-3.6667 5.7836 0 0zm15.847-2.5852c-2.0644-4.1611-7.4429 5.5729-1.5351 2.0142 0.68156-0.47746 1.4626-1.1076 1.5351-2.0142zm8.801-0.34927c4.6425-2.1854 6.0844-6.5644 5.8007-11.523 0.33907-3.4422 0.63129-13.307-4.7936-7.9627-1.9685 3.8857 1.6156 8.7546-0.71591 13.104 0.89002 3.9367-6.4587 5.8718-3.3003 8.5201 1.2174-0.31971 2.1208-1.3048 3.009-2.1382zm11.801-0.93387c-3.9121-6.1038-3.9454 5.9694 0 0zm-212.08-1.9809c0.68382-6.6927 1.0618-13.716-0.95674-20.211-5.463-4.159-5.8828 5.6296-5.6473 9.2256 0.81051 4.0288-2.2648 12.72 3.7992 12.926 1.1284-0.16355 2.5262-0.68166 2.8049-1.9405zm188.26-1.1266c4.6422-4.638-5.169-2.1791-3.8752 1.411 1.4063 0.20519 2.7105-0.76973 3.8752-1.411zm9.39-3.8257c3.4098-3.748-9.1505-2.7097-3.32 0.80435 1.2892 2.1862 2.2995 0.51051 3.32-0.80435zm-22.814-0.99047c-2.4119-4.6968-3.3442 3.5327 0.19873 1.1192l0.0491-0.50389-0.24787-0.61533zm-6.0389-7.5275c-1.6711-1.5936-0.37147 10.838 0.28026 3.5235 0.0497-1.1782 4e-3 -2.3742-0.28026-3.5235zm-148.75 1.6974c-0.88191-6.6998-7.7161 1.9626-2.0971 2.6606 1.4555 0.17261 2.5347-1.3101 2.0971-2.6606zm155.58-2.0936c-1.5942-4.186-4.1821 1.3515-0.42749 1.4597l0.2222-0.34047zm-148.97-6.2454c-0.0586-4.1535-7.2702-3.43-3.4775 0.4534 0.91266 1.2646 3.3614 1.5709 3.4775-0.4534zm-29.253-6.3271c-4.0597-4.7742-3.121 2.5991 0.6473 1.9739 0.18399-0.71767-0.36692-1.3818-0.6473-1.9739zm36.384-4.8596c-2.4119-4.6968-3.3442 3.5327 0.19873 1.1192l0.0491-0.5039-0.24787-0.61532zm18.938 0.0217c5.1119-1.1589-3.1137-3.3527-5.0415-2.0146-2.7561-0.64693-8.1689 3.7633-2.3313 3.1515 2.4166-0.59184 4.8781-1.0753 7.3728-1.1369zm-66.127-3.6668c-3.8142-6.5974-1.4942-16.195 4.9737-20.163 2.8674 0.70337 1.4887 6.6645 6.0975 6.4592 9.1205 2.5818 18.575-0.32915 27.798 0.47656 2.9619 3.415-6.7316 4.2464-7.5701 5.048 19.655-0.89021 39.152-3.8588 58.732-5.6937 7.3586-0.70288 14.689-1.8231 22.015-2.6625-2.7248 2.7412-8.6118 2.5989-12.651 3.8378-13.524 2.7645-27.197 4.7133-40.834 6.7854-2.0606 0.0792-8.2203 2.6407-2.7591 2.7754 17.483 0.42822 34.771-2.8106 51.84-6.2141 10.892-2.0742 21.913-3.4519 32.749-5.8107 1.7357 1.8387-5.9065 3.3377-7.8234 4.1153-6.4398 1.991-13.361 2.8344-19.409 5.8803 4.3041 0.54445 9.0399-0.99348 13.548-0.98718 6.612-0.67395 13.313-0.0139 19.885-1.0071 3.0576-1.4092 3.5579-6.2201 8.1121-5.4523 3.9314-2.5858-5.8877-3.6833-0.65377-6.1359 4.6652-2.1766 10.049-0.9959 14.916-2.5681 15.346-3.6488 30.48-8.8098 44.349-16.389 5.2763-3.2529 10.487-8.2532 11.327-14.665-0.86013-3.9454-3.6285-7.1301-5.473-10.664 3.0569-4.7865 6.4315-9.6428 6.7529-15.536 0.99159-9.757-0.26182-21.004-7.7367-28.091-4.9877-4.7235-11.902-7.6578-18.828-6.655-4.8411-1.016-9.6644-2.5057-14.705-2.7181-26.703-2.3383-53.568-2.8779-80.356-2.0538-21.359 1.3266-42.676 3.4012-63.935 5.85-12.139 1.7603-24.714 2.7929-36.034 7.8587-3.8552 1.3672-9.4824 6.9848-2.68 8.784 8.9955 3.241 18.721 3.6392 28.153 4.7414 19.724 1.9009 39.545 2.298 59.34 2.7065 5.6102-0.9899 9.1488 4.3087 14.383 4.1333 10.903-1.764 21.837-3.3964 32.837-4.4815 21.288-2.9098 42.526-6.3338 63.562-10.712 3.7607 0.1065-2.3043 7.8894 4.0464 6.1832 5.1051-0.69201 4.2661 4.5385-0.11339 4.8877-5.158 3.307-10.465 6.2458-16.569 7.0809-6.9156 5.0698-15.48 7.149-23.673 9.2586-5.4576 1.7386-11.279 0.94524-16.765 2.3395-4.0662 2.6811-9.7182 1.3758-14.452 1.817-4.8779-0.87895-8.3472 1.7207-11.631 4.356-6.442 0.56923-13.145 0.33504-19.393-1.4539-4.3928-0.93643-3.9139-5.5724-2.7416-8.7945 0.95091-2.7191-1.5292 1.1493-2.3319 1.797-2.1985 4.1662-5.6761 3.4314-9.2173 1.8538-4.7257-0.0483-10.101-0.0608-14.052 2.7979-4.4169 2.3773-9.7396 0.44683-14.529 0.78197-18.6-0.0609-37.185 1.0108-55.773 1.5655-4.6825-0.52368-6.9686 8.057-6.1427 10.654 2.5569-2.2596 7.4179-10.919 10.19-5.0415 2.0298 4.55 8.741 3.3308 12.981 4.3613 15.815 1.3594 31.64 2.9698 47.515 3.3695 12.481 0.0595 24.896-2.1336 37.371-1.6899 2.1386 0.26327 0.4559 3.5646 3.8804 2.4086 5.2973-0.22632 10.546-1.32 15.777-1.8922 3.9852 2.5204 7.8417 7.1564 13.252 5.0115 4.4976-0.86754 4.2623-3.8297-0.21283-4.0297-3.3287-0.14829-7.3247-3.6055-1.9312-4.3452 12.447-3.2505 25.321-4.5765 37.712-8.1068 14.033-3.8076 28.277-8.4759 39.924-17.476 3.5176-3.6072 8.1442-0.48408 5.4904 4.0362-2.2645 5.8226-4.8233 12.142-9.9389 16.026-3.1086 1.5646-1.3981-5.7616-4.5023-1.398-3.1616 2.2926-10.893 0.45008-9.8765 6.447 0.81568 1.507 6.7171 6.8101 2.9403 6.6812-2.379-3.1285-5.8542-6.5152-9.2911-2.5338-4.1506 2.0667-10.487 4.8255-12.716-0.97031-2.8187-0.35525 0.55037 4.848-3.2199 5.4811-3.9957 3.2843-10.492 0.66496-13.131 5.5264-4.4784 1.715 5.0121 1.4399 6.3807 1.0303 4.4606-2.3974 9.5871-3.343 14.684-3.8147 5.2863-0.45426 10.695-1.2028 15.957-0.23401 1.6698 4.232-6.5874 7.9792-10.596 8.717-12.881 3.2687-25.957 8.163-39.455 6.574-5.1435 0.50818-8.6335-8.4758-1.6243-7.8688-1.245-2.5366-11.638 0.32743-8.1146 4.9728 3.1902 1.3109 5.4241 5.356 0.41415 6.014-6.7704 1.6266-14.056 0.80062-20.529-1.625-3.7271-1.1121 3.0623-4.9761-1.744-4.2218-15.15 0.49773-30.152 3.0027-45.282 3.8944-20.096 1.4897-40.231 2.8836-60.387 2.7975-5.3306-0.25783-9.3433 3.9167-10.578 8.815-1.907 5.7846-4.537 12.402-1.971 18.355 1.7145 3.1191 8.5092 3.7769 4.0443-1.1884zm204.06-50.266c1.1795-3.0398 7.9392-6.6446 10.253-4.7493-2.1093 2.1257-7.4335 9.0162-10.253 4.7493zm-118.83 50.75c4.7128-2.1364-5.099-1.5539-6.5746-0.84243-2.6513 0.20505-4.7632 3.1025-0.55675 2.2915 2.4254-0.11256 4.8667-0.56093 7.1313-1.4491zm9.5084-1.5847c-0.0244-4.5684-7.3078 1.6295-1.8144 1.4597 0.73984-0.27578 1.388-0.79433 1.8144-1.4597zm-54.256-1.1156c-2.5336-0.36394-7.5077-0.61532-8.6894 0.4524 2.1569 0.10739 9.2743 0.72682 8.6894-0.4524zm68.983-1.2901c-2.6712-3.257-9.9813 0.33439-11.341 1.7858 3.7928-0.43003 7.641-0.83057 11.341-1.7858zm111.26-21.365c-1.251-4.3036-8.0252 1.1203-2.3771 1.5847 0.95351 8e-4 2.3029-0.44388 2.3771-1.5847zm-213.94-7.5047c-4.6256-2.7705-9.1608-7.506-9.6383-13.117-2.2306-6.5144-7.1876 2.8732-1.6326 4.1583 0.0863 5.6293 5.6745 9.6648 11.271 9.936 1.7699 0.0105 2.1886-0.24619 0-0.97715zm123.95-3.961c-2.4619-3.3298-9.4743 2.292-3.2598 1.8564 1.631-0.23915 9.273 0.63112 3.2598-1.8564zm-30.455-12.399c-1.8862-5.1814-5.3047 4.7567-0.96941 1.9727 0.50581-0.53548 0.94086-1.2123 0.96941-1.9727zm110.14-18.923c3.1477-6.4237-7.9744-2.8216-4.8497 1.2443 1.6034 0.67704 3.8179 0.20805 4.8497-1.2443zm-180.2-4.0259c-5.7572-2.0316-12.108-1.7628-17.834-4.0658-4.7019-0.68149-7.8013-4.4492-11.297-6.2983-5.3201-0.92151-7.2687-7.1594-10.652-9.311-1.59 4.358 2.6687 8.9766 5.2256 12.43 7.4846 7.9805 19.376 8.2278 29.563 7.955 1.5801-0.21888 3.6836 0.13054 4.9949-0.70977zm91.451-0.72834c-2.6823-4.4294-8.8414 1.573-2.2836 1.5847 0.85314 7e-3 2.9373-0.24618 2.2836-1.5847zm-10.829-2.4453c-0.21965-3.9002-9.2096-0.17009-3.5918 2.1489 1.5574 0.82314 3.7209-0.27339 3.5918-2.1489zm38.958-3.3585c-2.1932-1.3045-6.6313 0.99774-1.9809 0.79931 0.36908 4e-3 3.5144-6e-3 1.9809-0.79931zm-93.942-2.058c4.4918-4.2799-6.0593-2.6322-8.7781-3.2376-7.923-0.0795-15.965-0.7015-23.814 0.42109 4.0736 1.6908 8.977 1.5182 13.432 2.0721 5.5315 0.4493 11.101 1.0264 16.528 2.0048 0.93927-0.27323 1.8029-0.75216 2.632-1.2604zm20.648-1.5146c-3.7276-2.1556-9.0627-1.7325-13.174-0.56404 1.7004 3.0002 8.5763 2.0649 12.103 1.3748 0.36867-0.17872 0.99421-0.30282 1.0704-0.81075zm85.576-0.13201c-3.9122-6.1038-3.9454 5.9694 0 0zm12.678-3.1198c-1.139-2.8339-7.766 2.1261-2.3771 1.535 0.9349-5e-3 2.2908-0.40567 2.3771-1.535zm147.51 357.44c-0.25189-4.7677 2.8143 0.46251 0.31746 1.6451l-0.20699-0.53888-0.11053-1.1062zm-0.73421-13.047c-1.2251-11.181 0.37217-22.444 0.44472-33.658 0.63758-2.5563-1.0662-9.991 1.68-9.7437 2.257 7.1918 1.824 14.956 1.9875 22.422-0.48338 6.4299 0.0346 12.916-0.67458 19.319-0.1279 2.1604-2.2977 6.042-3.4376 1.6598zm-384.38-67.51c-0.25781-1.9384 0.39709-7.5068 1.8072-2.7217 0.89185 2.3039 2.4525 9.5666-0.94037 8.9254-0.84108-1.9338-0.85363-4.1286-0.86683-6.2037zm-0.0632-23.678c0.67652-4.0005-1.4003-12.002 2.8598-13.028 2.1741 4.2614 0.85908 9.3722 0.55157 13.945-0.68184 2.1689-0.34982 8.5608-2.6463 8.3071-0.8106-2.9893-0.68119-6.1532-0.76507-9.2242z"/>
 </g>
</svg>
