<svg width="436" height="858" viewBox="0 0 436 858" fill="none" xmlns="http://www.w3.org/2000/svg">
<path d="M193.512 857.623C196.369 857.628 199.226 857.627 202.083 857.615C221.128 857.537 240.169 857.044 259.167 855.701C278.445 854.062 297.758 851.998 316.694 847.941C325.958 845.66 336.289 842.403 341.671 833.918C345.537 825.149 344.559 814.428 339.864 806.16C338.405 802.864 334.266 796.648 338.474 794.418C341.482 790.381 341.882 784.968 342.433 780.094C343.2 772.188 337.136 766.27 332.203 760.92C334.701 757.603 337.3 754.36 339.691 750.963C342.769 747.552 343.886 742.994 341.878 738.734C339.847 732.009 334.832 726.915 329.866 722.228C326.247 720.698 332.377 708.749 326.622 701.708C329.797 698.984 335.268 700.99 338.263 697.312C345.284 690.459 344.032 678.462 338.423 671.124C336.056 666.342 328.555 665.849 327.527 660.657C331.836 651.638 341.55 647.24 350.25 643.438C366.895 636.615 384.453 632.054 400.5 623.764C407.703 619.839 415.907 616.117 420.182 608.731C425.882 596.922 428.93 583.951 430.784 571.022C432.758 566.041 428.431 560.835 430.849 556.577C434.973 541.244 431.036 531.926 433.273 518.88C432.468 476.018 433.063 433.143 433.56 390.28C434.912 322.609 435.431 254.92 435.486 187.24C435.66 166.73 434.574 146.238 434.786 125.726C434.526 117.427 435.246 108.93 433.357 100.798C429.617 98.5707 435.676 98.997 434.472 95.5613C434.883 84.0693 434.162 72.5563 433.47 61.0843C433.496 55.2902 431.026 49.4963 425.611 46.7933C420.431 44.6077 415.786 41.3992 411.408 37.8871C406.825 34.0755 400.951 32.494 396.199 28.9926C391.566 24.1047 385.399 21.0937 379.105 18.9126C371.473 15.7281 363.036 16.0503 355.245 13.5317C347.529 9.33828 338.537 9.39512 330.076 7.93402C312.196 4.81102 293.99 5.07101 275.952 3.61761C270.403 3.56791 265.122 1.08298 259.555 1.78558C254.183 3.21078 248.533 3.05987 243.155 1.68597C240.364 1.08167 237.508 0.845261 234.666 0.621521C212.031 -0.709979 189.348 0.538522 166.693 0.391052C150.487 0.209052 134.278 0.586807 118.121 1.93793C111.193 2.12243 104.497 3.91753 97.6212 4.53363C84.8232 5.25353 72.2962 8.0203 59.6822 10.0824C50.8883 10.9598 42.2152 13.0088 34.1472 16.6722C29.1245 19.3398 23.4832 20.4209 18.3312 22.5804C13.7491 25.6003 7.5802 28.938 7.6142 35.2234C6.266 80.9095 5.31182 126.61 3.97552 172.293C2.94332 200.921 1.49359 229.587 2.70599 258.231C4.39399 264.452 1.2896 270.604 1.81146 276.858C4.54896 280.644 2.90006 284.619 1.25287 288.52C0.181469 293.504 -1.05134 299.333 1.60638 303.985C5.03848 308.365 -1.06119 313.746 0.366211 318.979C-0.496699 344.437 0.451907 369.916 0.469727 395.381C0.882197 413.318 -0.498203 431.419 2.30762 449.213C2.28362 449.583 2.31804 449.933 2.38184 450.266C2.04369 462.163 2.35468 489.385 1.94232 494.87C2.08403 501.341 1.78029 515.535 3.16504 523.89C2.06424 524.338 1.19478 525.654 1.75098 527.611C2.1442 540.358 3.93526 553.031 4.34076 565.787C4.56565 576.133 6.27885 587.033 13.1552 595.221C17.1576 600.06 21.247 605.724 27.3582 607.932C32.1663 606.282 29.2283 611.113 30.4891 613.44C33.4817 619.035 39.9489 620.845 45.5831 622.483C51.3843 625.301 57.1351 628.407 63.4971 629.83C77.0651 636.453 70.2137 632.337 77.0651 636.453C84.6359 638.315 90.321 644.238 94.194 650.726C96.635 654.539 99.3438 661.27 93.7214 663.57C94.7125 668.31 88.1564 668.194 87.4538 672.225C86.3955 680.508 85.9149 690.023 91.2272 697.041C93.7776 701.452 100.829 700.612 102.198 705.802C102.165 711.416 104.239 717.64 101.104 722.786C97.3821 727.196 94.671 732.734 94.8095 738.626C95.0493 743.151 95.3705 748.897 99.4462 751.673C99.9141 751.61 100.306 751.486 100.634 751.312C100.785 751.778 100.933 752.248 101.108 752.695C101.477 753.176 101.918 753.548 102.409 753.833C101.029 755.422 101.756 759.057 99.4013 760.998C94.8597 764.288 94.3546 770.138 94.3837 775.287C94.4792 780.798 94.0771 787.971 99.3778 791.334C107.295 792.225 103.244 799.841 98.5868 802.289C94.21 809.118 94.0686 817.813 95.3915 825.586C96.1071 831.781 100.949 836.194 102.774 841.975C104.039 848.301 110.826 850.749 116.278 852.348C133.083 856.619 150.579 856.786 167.809 857.394C176.375 857.513 184.945 857.6 193.516 857.617L193.512 857.623Z" fill="none"/>
<path d="M243.152 1.67584C248.531 3.04974 254.18 3.20102 259.552 1.77582C265.12 1.07322 270.401 3.55656 275.95 3.60626C293.987 5.05966 312.194 4.80107 330.074 7.92407C338.536 9.38517 347.527 9.32686 355.244 13.5203C363.035 16.0389 371.471 15.7181 379.102 18.9026C385.397 21.0838 391.565 24.0936 396.197 28.9816C400.95 32.483 406.822 34.0658 411.405 37.8774C415.784 41.3895 420.43 44.598 425.609 46.7836C431.025 49.4864 433.493 55.2803 433.468 61.0745C434.16 72.5455 434.88 84.0595 434.469 95.5515C435.674 98.9872 429.615 98.5606 433.354 100.788C435.244 108.919 434.524 117.417 434.784 125.716C434.571 146.227 435.658 166.718 435.484 187.229C435.43 254.912 434.91 322.599 433.558 390.269C433.061 433.132 432.467 476.007 433.272 518.868C431.035 531.914 434.971 541.234 430.847 556.566C428.429 560.824 432.756 566.03 430.782 571.01C428.928 583.939 425.88 596.911 420.18 608.72C415.905 616.106 407.701 619.828 400.499 623.752C384.452 632.042 366.895 636.604 350.25 643.427C341.55 647.229 331.835 651.625 327.526 660.645C328.555 665.837 336.057 666.331 338.424 671.113C344.033 678.45 345.285 690.447 338.264 697.299C335.269 700.977 329.798 698.972 326.623 701.696C332.378 708.736 326.247 720.685 329.867 722.215C334.832 726.902 339.846 731.996 341.877 738.721C343.884 742.981 342.768 747.539 339.69 750.95C337.3 754.347 334.7 757.59 332.202 760.907C337.136 766.256 343.199 772.174 342.432 780.079C341.882 784.953 341.482 790.367 338.473 794.404C334.266 796.634 338.404 802.851 339.863 806.147C344.558 814.415 345.537 825.136 341.671 833.905C336.289 842.391 325.959 845.648 316.694 847.929C297.758 851.986 278.445 854.049 259.166 855.687C228.769 857.836 198.261 857.811 167.806 857.387C150.575 856.779 133.078 856.612 116.273 852.341C110.82 850.742 104.035 848.294 102.77 841.968C100.945 836.187 96.1027 831.774 95.3871 825.579C94.0643 817.805 94.2054 809.111 98.5822 802.282C103.239 799.834 107.29 792.218 99.3729 791.326C94.0721 787.963 94.4743 780.791 94.3788 775.28C94.3497 770.131 94.8548 764.282 99.3964 760.992C102.863 758.135 99.6384 751.594 106.314 753.339C116.649 752.202 126.012 747.245 135.994 744.639C163.46 736.477 191.474 729.907 219.953 726.503C233.74 724.795 247.534 721.808 261.487 722.426C265.75 722.737 270.879 723.13 274.387 720.469C270.443 717.627 264.777 717.347 259.936 716.547C240.641 714.79 221.226 715.378 201.877 715.418C177.241 715.634 152.573 717.369 128.328 721.885C122.45 723.14 116.296 723.353 110.597 725.284C105.317 727.819 100.17 733.147 101.172 739.465C100.697 743.166 104.564 750.969 99.4431 751.665C95.3674 748.889 95.0464 743.145 94.8065 738.62C94.668 732.728 97.3783 727.188 101.101 722.779C104.235 717.633 102.161 711.41 102.194 705.796C100.826 700.605 93.7743 701.445 91.2244 697.034C85.9121 690.016 86.3932 680.501 87.4515 672.218C88.1541 668.187 94.7092 668.303 93.7181 663.564C99.3405 661.263 96.6324 654.532 94.1913 650.719C90.3188 644.23 84.6326 638.307 77.0613 636.446C74.2121 635.944 69.1891 631.972 74.6479 631.213C77.8989 629.748 82.8434 629.034 83.0773 633.952C85.4939 635.71 89.5557 634.213 90.9504 638.15C95.0193 641.926 97.7616 634.923 93.1053 633.486C87.7273 631.922 83.6831 625.667 77.6462 627.181C74.5067 628.049 74.7382 620.841 71.0306 624.128C73.0183 629.419 68.1675 632.177 63.4929 629.824C57.1311 628.4 51.3789 625.294 45.5779 622.475C39.944 620.838 33.4779 619.028 30.4849 613.433C29.2242 611.106 32.1614 606.274 27.3533 607.924C21.2419 605.716 17.1533 600.054 13.1503 595.214C6.27393 587.027 4.56017 576.125 4.33527 565.779C3.92971 553.023 2.13905 540.351 1.74585 527.603C0.46585 523.101 6.72814 521.977 6.01044 527.062C6.8664 541.008 7.03238 555.167 10.4908 568.782C13.0348 575.966 16.5784 583.582 23.0967 587.955C28.0281 588.882 31.755 593.148 37.2648 592.27C42.3557 592.512 46.8549 589.668 51.9058 589.453C74.8738 586.592 98.0818 586.455 121.073 583.814C133.677 582.769 146.352 582.673 158.961 582.023C163.178 581.798 167.174 575.926 170.916 579.827C173.894 578.65 176.333 577.733 178.733 580.244C185.949 581.691 193.526 581.833 200.779 580.564C204.889 576.748 209.886 580.574 214.704 580.264C230.344 581.589 246.118 580.047 261.71 581.991C266.142 585.546 270.139 578.494 274.817 582.192C280.896 584.727 287.407 582.166 293.693 583.103C304.184 584.146 314.644 585.592 325.2 585.92C335.518 586.684 346.089 585.815 356.198 588.355C362.281 591.778 369.625 592.232 376.43 591.31C382.479 591.367 379.531 581.779 386.4 583.788C390.453 585.065 392.178 580.634 394.749 579.911C399.516 581.871 404.061 587.241 399.623 591.971C392.814 601.69 382.561 608.414 372.21 613.875C354.097 622.238 334.96 628.297 315.521 632.702C304.901 635.272 295.104 640.986 287.336 648.61C283.053 654.289 292.977 655.112 296.652 655.348C300.744 656.392 305.435 655.452 304.771 650.19C308.415 642.579 316.3 637.344 324.468 635.749C332.258 634.8 324.88 642.788 322.057 644.538C318.951 647.453 314.323 652.673 318.311 656.683C323.823 660.772 324 649.656 327.469 647.088C331.526 641.573 337.76 638.345 342.592 633.609C352.352 628.088 363.766 626.744 373.912 622.098C386.758 615.805 388.512 612.732 391.457 611.48C396.275 608.647 397.158 602.977 401.437 599.908C403.114 594.88 409.086 591.342 409.494 585.053C409.117 579.833 402.629 577.827 401.454 572.841C400.056 566.41 401.068 559.232 397.253 553.463C393.679 545.419 396.784 536.212 393.746 528.073C389.971 522.461 390.897 536.59 388.519 530.751C387.492 519.209 388.945 507.62 388.905 496.057C390.036 443.052 390.555 390.037 391.498 337.027C392.611 268.796 392.522 200.547 394.012 132.327C393.933 123.226 395.63 113.998 393.947 104.984C391.063 100.51 394.45 94.9918 393.989 89.9279C394.927 74.2849 396.034 58.588 395.359 42.916C395.424 38.3845 393.693 32.8 388.151 33.4213C372.226 29.5263 357.005 22.7652 340.7 20.4642C323.433 18.7398 306.169 16.946 288.93 14.9915C273.998 13.7877 258.838 14.416 244.154 11.041C231.157 9.38945 218.015 10.3088 204.954 9.91241C174.471 9.76241 143.898 8.98976 113.499 11.7263C106.239 12.1767 99.2722 15.6829 91.9022 14.1561C87.0061 12.6075 83.9577 17.3561 79.1242 17.1461C64.9882 18.7716 50.7862 19.7589 36.6452 21.304C29.0104 22.145 22.2682 26.531 16.8032 31.6901C11.4623 38.1498 12.0357 47.1031 11.3985 54.9821C10.6189 85.9451 10.5756 116.922 9.99298 147.89C8.57088 232.887 7.44042 317.89 5.47192 402.88C5.36612 418.574 7.1789 434.293 6.05035 449.974C6.36996 454.937 2.07216 452.767 2.30316 449.214C-0.502638 431.42 0.877549 413.319 0.465149 395.381C0.447349 369.915 -0.500849 344.438 0.362061 318.979C-1.06534 313.745 5.03317 308.363 1.60107 303.984C-1.05673 299.332 0.175752 293.504 1.24719 288.52C2.89439 284.618 4.54321 280.644 1.80579 276.858C1.28393 270.604 4.3896 264.45 2.70166 258.23C1.48926 229.586 2.9389 200.92 3.97107 172.292C5.30727 126.605 6.26175 80.9038 7.61005 35.2218C7.57615 28.9368 13.7441 25.599 18.326 22.5788C23.4781 20.4193 29.119 19.3384 34.142 16.6708C42.2098 13.0074 50.884 10.9583 59.678 10.0809C72.293 8.01877 84.8191 5.25182 97.6171 4.53192C104.493 3.91582 111.188 2.12206 118.116 1.93756C134.273 0.586461 150.482 0.208686 166.689 0.390686C189.344 0.538086 212.027 -0.7112 234.662 0.6203C237.504 0.844 240.36 1.08167 243.15 1.68597L243.152 1.67584ZM406.432 47.7659C408.21 53.3644 414.157 56.1972 419.253 58.1368C422.341 59.8645 422.263 66.221 426.953 62.7725C429.225 62.1876 431.06 60.5387 427.264 60.7393C423.378 57.1142 419.414 53.1051 414.649 50.3033C412.609 49.6028 407.859 44.4143 406.432 47.7659ZM407.964 81.5349C410.515 84.8566 412.341 76.9089 408.09 80.8832L407.964 81.5349ZM414.303 104.42C410.595 109.15 420.862 105.698 416.875 102.043C415.808 102.543 415.081 103.568 414.303 104.42ZM407.388 107.58C410.093 112.584 412.062 104.002 407.433 105.399C406.902 106.01 407.166 106.915 407.388 107.58ZM400.357 131.505C400.614 135.129 399.264 142.461 401.657 143.74C403.34 136.063 403.237 128.044 402.817 120.226C401.618 114.494 400.624 124.366 400.64 126.22C400.51 127.98 400.419 129.742 400.357 131.505ZM419.466 132.529C418.67 138.495 423.799 129.513 420.012 129.22C419.56 130.267 419.58 131.418 419.466 132.529ZM399.342 160.355C399.295 162.563 399.714 171.819 402.059 166.223C402.515 161.096 402.595 155.641 401.323 150.69C399.319 153.114 399.416 157.285 399.342 160.355ZM411.247 179.048C411.373 184.755 410.728 190.615 412.108 196.197C416.116 196.668 415.03 188.523 415.427 185.304C416.234 182.011 414.38 175.582 417.324 174.055C418.675 181.69 418.124 189.577 418.352 197.319C418.504 212.881 417.504 228.486 418.734 244.017C421.12 249.011 422.108 238.164 421.876 235.846C422.549 214.529 423.237 193.197 423.067 171.867C423.469 169.016 422.401 160.555 419.689 166.958C420.005 170.301 416.343 172.605 416.011 168.033C417.092 165.293 413.219 157.164 412.028 162.903C411.432 168.261 411.332 173.663 411.247 179.048ZM410.956 203.862C410.602 221.322 410.72 238.814 411.574 256.258C413.191 254.411 413.281 246.211 413.931 242.093C415.099 228.783 415.208 215.292 413.446 202.034C413.044 197.988 410.653 202.27 410.956 203.862ZM416.555 285.872C416.307 299.21 416.08 312.549 415.787 325.887C414.438 331.935 410.964 325.781 412.009 322.586C411.724 319.746 412.789 314.484 410.608 313.061C409.073 319.889 409.502 327.045 409.819 333.997C410.427 338.039 414.771 328.437 414.957 334.863C415.792 346.353 414.934 357.898 414.653 369.401C415.301 371.791 413.039 377.333 411.241 372.921C412.116 370.815 410.863 361.626 408.733 367.155C408.586 370.646 405.944 379.733 411.944 378.072C415.54 377.002 413.619 385.032 417.647 381.758C419.517 377.132 418.608 371.628 419.088 366.619C419.776 345.779 419.271 324.903 420.478 304.081C421.769 295.828 421.3 287.369 421.583 279.025C421.449 269.229 422.191 259.341 420.876 249.61C417.879 245.365 417.592 254.674 417.456 256.719C416.862 266.424 416.761 276.153 416.555 285.872ZM409.753 289.096C409.934 296.324 409.765 303.636 411.02 310.776C414.617 309.091 412.349 300.689 413.281 296.413C413.517 285.141 414.428 273.705 412.234 262.567C409.969 260.985 410.521 269.497 410.073 271.999C409.781 277.692 409.721 283.396 409.753 289.096ZM426.19 274.778C428.602 279.475 429.534 271.246 425.991 273.659L425.942 274.163L426.19 274.778ZM396.096 277.974C397.956 281.066 402.36 275.534 397.571 276.363C396.729 276.216 395.37 276.984 396.096 277.974ZM424.412 332.389C424.659 334.672 423.799 342.627 426.375 341.561C427.571 335.767 426.664 329.676 428.399 323.932C426.498 319.537 423.799 327.88 424.491 330.214L424.444 331.265L424.412 332.389ZM409.154 340.413C410.05 346.085 415.68 338.53 410.6 338.58C409.831 338.876 409.356 339.65 409.154 340.413ZM425.299 357.927C427.319 363.868 426.568 352.723 426.693 350.557C426.99 348.423 426.277 343.88 425.306 348.418C424.474 351.503 424.487 354.842 425.299 357.927ZM408.353 350.053C410.466 353.262 403.06 356.424 408.873 357.134C415.461 357.247 410.711 344.532 408.089 347.255C408.058 348.194 408.182 349.132 408.353 350.053ZM407.965 361.939C411.877 368.043 411.91 355.97 407.965 361.939ZM400.041 387.388C402.592 390.71 404.417 382.762 400.166 386.736L400.041 387.388ZM422.532 396.011C421.677 398.753 425.212 404.429 426.356 399.239C427.383 396.72 426.54 387.543 422.912 391.835C422.475 393.178 422.495 394.615 422.532 396.011ZM408.36 424.507C407.681 430.131 415.338 428.618 413.104 423.588C411.66 418.092 408.069 418.714 408.36 424.507ZM423.811 424.536C424.279 431.634 428.198 418.188 423.932 423.613L423.811 424.536ZM401.625 428.497C402.97 431.587 408.874 429.606 403.8 427.863C402.869 427.125 401.124 426.389 401.625 428.497ZM414.006 437.504C416.166 438.933 418.777 436.051 414.964 436.546C414.393 436.359 412.183 436.938 414.006 437.504ZM423.02 450.684C425.431 455.381 426.364 447.151 422.821 449.564L422.772 450.068L423.02 450.684ZM424.439 466.102C426.766 465.38 424.059 459.567 424.008 464.814L424.133 465.566L424.439 466.102ZM396.871 464.946C400.783 471.05 400.817 458.977 396.871 464.946ZM405.984 481.454C406.88 487.126 412.509 479.571 407.43 479.621C406.66 479.917 406.186 480.692 405.984 481.454ZM405.587 488.718C407.999 493.414 408.932 485.185 405.389 487.598L405.339 488.102L405.587 488.718ZM398.819 489.015C399.783 493.962 406.159 489.889 401.675 487.331C400.546 486.764 398.295 487.386 398.819 489.015ZM406.38 499.019C407.329 490.513 410.925 508.444 406.38 499.019ZM411.336 509.188C411.665 512.357 410.6 518.936 413.919 519.794C416.221 515.049 415.388 509.458 415.473 504.325C416.113 501.98 413.836 495.28 412.249 500.628C411.556 503.422 411.423 506.323 411.336 509.188ZM407.172 541.015C409.204 545.258 413.693 539.494 408.663 539.43C407.84 539.289 406.455 540.022 407.172 541.015ZM230.472 590.142C232.066 594.328 234.654 588.79 230.9 588.682L230.677 589.023L230.472 590.142ZM127.462 593.405C130.012 596.726 131.838 588.779 127.587 592.753L127.462 593.405ZM108.445 594.104C109.282 600.44 114.44 591.406 109.414 591.914C108.711 592.394 108.452 593.297 108.445 594.104ZM205.907 595.759C185.333 596.653 164.697 596.823 144.195 598.883C135.925 600.148 127.371 599.94 119.303 602.292C116.688 605.377 126.608 604.18 128.877 604.57C134.221 604.479 139.585 605.59 144.903 604.871C149.286 603.344 154.178 604.677 158.746 604.811C179.365 607.389 200.127 605.114 220.806 604.829C254.923 603.847 289.059 603.811 323.176 602.977C329.409 601.732 317.84 599.888 315.906 599.769C303.242 598.64 290.6 597.26 277.974 595.755C271.452 594.889 264.921 595.643 258.39 595.646C249.335 595.376 240.308 593.43 231.244 594.674C222.802 595.133 214.354 595.459 205.905 595.759L205.907 595.759ZM100.287 599.909C95.8832 598.172 90.6709 600.384 86.262 601.685C82.9823 602.274 83.1339 606.231 79.6984 606.102C75.5405 612.835 87.0176 610.002 89.0444 606.682C93.2549 604.542 85.1276 603.749 89.7192 603.219C93.3832 607.478 99.9222 602.74 103.039 606.528C101.097 607.165 96.4411 610.609 100.621 612.146C104.53 611.797 108.676 611.247 111.547 614.108C114.622 610.945 110.317 605.043 114.785 602.82C111.898 600.224 105.871 601.867 104.617 596.855C103.1 597.233 102.095 601.308 100.287 599.909ZM42.469 602.05C43.3165 605.692 36.6388 612.294 41.9313 613.786C45.4809 610.405 48.4825 606.337 50.9069 602.078C52.5118 598.067 41.0756 597.716 42.469 602.05ZM52.3041 604.648C51.0035 606.714 48.04 612.291 53.1276 610.492C55.2468 608.45 53.9349 602.614 58.7524 605.493C63.7296 607.041 56.4522 600.802 55.228 599.65C53.966 601.105 53.2287 602.974 52.3041 604.648ZM313.674 607.574C313.096 609.602 317.203 610.533 317.123 612.785C318.157 610.527 317.129 602.608 313.674 607.574ZM321.598 609.159C323.63 613.402 328.119 607.637 323.089 607.574C322.266 607.433 320.881 608.166 321.598 609.159ZM72.7978 610.39C74.2031 611.905 77.6366 615.292 76.5431 610.77C76.6778 609.114 71.0181 608.388 72.7978 610.39ZM314.468 617.082C318.38 623.186 318.413 611.113 314.468 617.082ZM62.4978 617.882C58.4174 623.729 70.8676 616.842 65.1352 615.693C64.1037 616.213 63.2392 617.008 62.4978 617.882ZM205.128 618.634C207.277 623.454 213.955 623.442 218.494 624.471C225.447 625.243 232.55 625.616 239.494 624.601C242.298 619.968 232.696 620.089 229.586 619.322C222.236 618.383 214.825 617.08 207.403 617.445C206.668 617.647 205.354 617.713 205.128 618.634ZM70.4278 619.561C74.0945 613.777 74.9575 622.733 70.4278 619.561ZM301.798 621.844C302.149 628.376 310.278 622.76 304.53 619.936C301.9 617.797 301.651 619.247 301.798 621.844ZM85.2278 623.825C87.1865 624.63 85.2759 615.67 84.8981 621.844L84.9805 622.9L85.2278 623.825ZM115.595 624.864C109.784 625.178 103.974 625.492 98.1628 625.806C98.3568 628.68 97.3417 632.143 99.1481 634.522C102.774 636.022 105.809 636.16 106.03 631.646C110.492 632.389 114.251 636.259 118.949 637.045C123.459 640.16 125.84 645.227 128.264 649.931C132.285 653.36 138.492 651.77 143.341 651.403C148.59 649.952 149.641 642.917 155.482 642.386C164.42 639.731 173.73 637.795 183.086 637.882C185.764 637.476 188.796 643.977 188.959 638.208C190.862 633.321 199.349 637.043 203.753 636.268C212.341 636.961 221.164 637.505 229.345 640.338C228.726 641.853 223.425 644.518 227.708 646.865C230.878 650.123 240.455 646.867 235.118 642.386C231.555 640.915 239.548 642.177 240.992 642.359C249.661 643.762 257.335 648.211 265.561 650.965C267.822 652.225 275.935 652.951 270.827 649.129C261.654 643.92 251.498 640.557 241.307 637.946C225.091 634.743 208.57 632.312 191.997 633.445C180.562 633.93 169.13 634.706 157.745 635.793C151.992 635.25 148.583 629.796 144.253 626.6C140.253 621.643 134.24 623.199 128.839 623.917C124.432 624.32 120.015 624.623 115.597 624.865L115.595 624.864ZM96.9508 641.808C93.5845 647.341 105.375 649.243 102.686 642.957C101.266 641.699 98.6205 639.893 96.9508 641.808ZM112.394 649.891C110.003 645.602 102.567 648.367 99.8878 651.123C98.5978 656.779 103.673 661.891 102.582 667.577C99.3678 670.875 101.753 671.313 104.889 669.827C108.353 669.096 118.337 665.749 111.122 662.332C109.259 660.859 102.405 659.099 103.766 657.098C111.305 658.27 117.46 664.357 125.277 664.068C131.549 663.529 138.032 660.692 144.264 662.852C145.857 667.543 136.61 668.05 133.177 669.524C126.886 671.746 119.875 674.228 115.867 679.887C115.201 685.509 108.847 680.501 107.403 684.888C103.498 684.278 100.237 684.885 97.7714 688.036C95.757 687.817 90.175 689.838 93.9322 691.459C98.3767 691.475 104.182 685.64 107.542 690.629C112.746 692.561 116.607 687.051 120.453 684.457C129.175 678.801 139.976 677.093 148.104 670.39C154.993 666.301 162.684 663.686 170.404 661.691C172.402 662.299 169.023 667.961 173.594 667.385C175.839 664.327 181.031 667.411 182.215 663.948C181.079 661.465 178.023 661.188 175.814 660.079C184.156 660.24 192.228 657.396 199.835 654.262C204.301 649.498 194.477 651.635 192.115 652.869C179.204 654.484 166.161 654.729 153.226 656.168C143.271 656.99 133.348 658.274 123.394 659.015C118.83 659.674 118.323 654.614 122.855 654.054C126.701 650.597 121.641 650.932 119.281 650.54C116.848 647.2 114.547 647.438 113.77 651.792C112.968 652.349 112.746 650.151 112.394 649.891ZM223.354 668.236C218.6 668.884 213.845 669.531 209.091 670.179C223.477 670.636 237.915 672.094 252.284 670.791C256.907 669.277 260.004 673.307 264.488 670.929C278.642 670.266 293.7 672.415 305.597 680.598C309.816 683.129 311.01 689.302 316.397 690.028C322.242 689.696 317.361 682.162 315.132 679.863C308.825 672.037 299.067 667.623 289.117 667.157C281.024 666.462 272.776 666.537 264.841 664.83C250.963 664.943 237.113 666.52 223.354 668.236ZM203.545 672.506C204.684 675.34 211.311 670.38 205.922 670.971C204.987 670.976 203.631 671.377 203.545 672.506ZM192.155 672.054C194.314 673.483 196.926 670.601 193.112 671.096C192.541 670.909 190.331 671.488 192.155 672.054ZM95.1198 673.518C92.046 674.44 92.3156 682.193 93.5762 681.952C92.986 678.057 101.496 675.34 97.8087 672.658C96.878 672.823 96.0018 673.192 95.1198 673.518ZM234.53 693.618C234.991 698.364 234.38 703.323 235.702 707.917C240.814 709.653 238.01 700.22 238.369 697.098C237.66 694.071 239.617 686.661 235.761 686.483C234.346 688.51 234.533 691.256 234.53 693.618ZM196.671 689.601C196.952 696.069 197.053 702.542 197.205 709.014H220.976C220.783 702.728 221.514 696.337 220.216 690.147C218.373 684.439 211.252 685.663 206.584 685.626C203.428 686.293 196.131 684.417 196.671 689.601ZM246.263 696.336C246.831 700.2 243.786 708.296 249.267 708.933C252.937 705.663 250.568 699.728 252.082 695.421C255.049 690.877 253.954 701.198 254.612 703.289C253.985 706.439 258.519 711.873 259.454 706.139C260.691 700.196 260.189 694.081 260.421 688.051C257.084 688.475 253.196 690.373 250.177 688.223C246.812 684.48 246.415 694.733 246.263 696.336ZM187.393 689.601C186.555 695.336 186.999 701.484 189.186 706.872C193.012 707.06 191.113 698.722 191.489 695.527C191.395 692.519 191.898 681.287 187.393 689.601ZM178.188 696.43C177.791 698.606 178.917 704.93 176.285 704.679C174.049 699.304 175.968 693.223 174.183 687.784C168.919 684.709 170.731 694.689 170.703 697.812C170.886 701.282 171.069 704.752 171.252 708.221C175.545 708.467 179.838 708.712 184.132 708.957C183.376 702.153 183.319 695.197 181.422 688.585C178.283 683.745 178.233 693.323 178.196 695.451L178.188 696.43ZM149.778 696.021C150.934 700.815 150.245 705.93 151.266 710.626C153.993 713.542 158.289 711.587 157.444 707.594C161.48 707.55 161.27 703.888 157.135 703.921C154.654 699.45 157.83 693.639 154.98 689.116C150.322 683.964 147.657 692.093 149.778 696.021ZM262.738 697.525C264.097 701.454 261.68 708.638 265.664 710.47C268.32 706.891 265.301 700.994 268.691 698.054C271.395 701.405 269.221 710.056 276.424 708.087C281.721 707.577 279.169 700.438 279.436 696.788C279.944 694.263 277.456 688.789 276.439 693.96C275.211 700.005 272.773 691.747 270.504 692.317C266.99 696.335 266.988 692.241 266.237 689.337C260.721 685.628 262.667 694.862 262.738 697.525ZM275.335 700.128C277.616 702.715 273.891 706.635 273.444 702.113C273.536 700.51 273.772 695.001 275.335 700.128ZM164.085 699.557C164.569 702.62 163.769 708.556 166.136 709.916C167.869 703.639 168.067 696.943 167.731 690.461C164.809 684.049 163.62 692.611 164.085 699.557ZM143.325 693.959C143.086 697.867 147.347 697.878 146.494 693.959C146.954 689.857 143.624 689.724 143.325 693.959ZM138.571 692.468C142.237 686.684 143.1 695.64 138.571 692.468ZM122.724 695.053C124.788 699.214 130.167 689.48 124.259 693.039C123.577 693.516 122.796 694.146 122.724 695.053ZM113.923 695.402C109.28 697.588 107.838 701.967 108.122 706.925C107.783 710.367 107.491 720.232 112.916 714.888C114.884 711.002 111.3 706.133 113.631 701.784C112.741 697.847 120.09 695.912 116.932 693.264C115.714 693.583 114.811 694.569 113.923 695.402ZM102.122 696.336C106.034 702.44 106.067 690.367 102.122 696.336ZM314.202 698.317C313.518 705.01 313.14 712.033 315.158 718.528C320.621 722.687 321.041 712.898 320.806 709.302C319.995 705.274 323.07 696.582 317.006 696.376C315.878 696.54 314.48 697.058 314.202 698.317ZM125.942 699.444C121.299 704.082 131.111 701.623 129.817 698.033C128.411 697.827 127.106 698.802 125.942 699.444ZM116.552 703.269C113.142 707.017 125.702 705.979 119.872 702.465C118.582 700.279 117.572 701.954 116.552 703.269ZM139.366 704.26C141.778 708.956 142.71 700.727 139.167 703.14L139.118 703.644L139.366 704.26ZM145.405 711.787C147.076 713.381 145.776 700.949 145.124 708.264C145.075 709.442 145.12 710.638 145.405 711.787ZM294.155 710.09C295.036 716.79 301.871 708.127 296.252 707.429C294.796 707.257 293.717 708.739 294.155 710.09ZM138.575 712.183C140.169 716.369 142.757 710.832 139.002 710.724L138.78 711.064L138.575 712.183ZM287.545 718.429C287.603 722.582 294.815 721.859 291.022 717.975C290.109 716.711 287.661 716.404 287.545 718.429ZM316.798 724.756C320.857 729.53 319.919 722.157 316.15 722.782C315.966 723.5 316.517 724.164 316.798 724.756ZM280.414 729.615C282.825 734.312 283.758 726.083 280.215 728.496L280.166 729L280.414 729.615ZM261.476 729.594C256.364 730.753 264.589 732.946 266.517 731.608C269.273 732.255 274.686 727.845 268.848 728.457C266.432 729.049 263.97 729.532 261.476 729.594ZM327.603 733.261C331.417 739.858 329.097 749.456 322.629 753.424C319.761 752.72 321.14 746.759 316.531 746.964C307.411 744.383 297.956 747.294 288.733 746.488C285.771 743.073 295.465 742.241 296.303 741.44C276.648 742.33 257.151 745.299 237.571 747.134C230.213 747.836 222.882 748.957 215.556 749.796C218.281 747.055 224.168 747.197 228.207 745.958C241.731 743.194 255.404 741.245 269.041 739.173C271.102 739.094 277.262 736.532 271.801 736.397C254.318 735.969 237.03 739.208 219.961 742.612C209.069 744.686 198.048 746.063 187.212 748.422C185.476 746.584 193.118 745.085 195.035 744.307C201.475 742.316 208.396 741.473 214.444 738.427C210.14 737.882 205.404 739.42 200.896 739.414C194.284 740.088 187.583 739.428 181.011 740.421C177.953 741.83 177.453 746.641 172.899 745.873C168.967 748.459 178.787 749.557 173.553 752.009C168.887 754.186 163.504 753.005 158.637 754.577C143.291 758.226 128.157 763.387 114.288 770.966C109.011 774.219 103.801 779.219 102.961 785.631C103.821 789.577 106.589 792.761 108.434 796.295C105.377 801.082 102.002 805.938 101.681 811.831C100.689 821.588 101.942 832.835 109.417 839.922C114.405 844.646 121.319 847.58 128.245 846.577C133.086 847.593 137.91 849.083 142.95 849.295C169.653 851.634 196.518 852.173 223.306 851.349C244.665 850.022 265.982 847.948 287.241 845.499C299.38 843.739 311.955 842.706 323.275 837.64C327.131 836.273 332.758 830.656 325.955 828.856C316.96 825.615 307.234 825.217 297.802 824.115C278.078 822.214 258.257 821.817 238.462 821.409C232.852 822.398 229.314 817.1 224.079 817.275C213.176 819.039 202.242 820.672 191.242 821.757C169.954 824.667 148.716 828.09 127.68 832.469C123.92 832.362 129.985 824.579 123.634 826.285C118.529 826.978 119.368 821.747 123.747 821.398C128.905 818.091 134.212 815.152 140.316 814.317C147.232 809.247 155.796 807.168 163.989 805.058C169.447 803.32 175.268 804.113 180.754 802.719C184.821 800.038 190.473 801.343 195.206 800.902C200.084 801.781 203.554 799.181 206.837 796.546C213.279 795.977 219.982 796.211 226.23 798C230.623 798.936 230.144 803.572 228.972 806.794C228.021 809.513 230.501 805.645 231.304 804.997C233.502 800.831 236.98 801.566 240.521 803.143C245.247 803.192 250.622 803.204 254.573 800.345C258.99 797.968 264.313 799.899 269.102 799.564C287.702 799.624 306.287 798.553 324.875 797.998C329.558 798.522 331.844 789.941 331.018 787.344C328.461 789.604 323.6 798.263 320.828 792.386C318.798 787.836 312.087 789.055 307.847 788.024C292.032 786.665 276.207 785.054 260.332 784.655C247.851 784.595 235.436 786.788 222.961 786.345C220.822 786.081 222.505 782.78 219.08 783.936C213.783 784.162 208.534 785.256 203.303 785.828C199.318 783.308 195.462 778.672 190.051 780.817C185.554 781.684 185.789 784.646 190.264 784.846C193.593 784.995 197.589 788.452 192.195 789.192C179.748 792.442 166.875 793.768 154.484 797.298C140.451 801.106 126.207 805.774 114.56 814.774C111.042 818.382 106.415 815.259 109.069 810.738C111.334 804.916 113.892 798.596 119.008 794.712C122.117 793.148 120.406 800.474 123.51 796.11C126.672 793.818 134.403 795.66 133.387 789.663C132.571 788.156 126.67 782.853 130.447 782.982C132.826 786.111 136.301 789.497 139.738 785.516C143.888 783.449 150.225 780.69 152.454 786.486C155.272 786.841 151.903 781.638 155.674 781.005C159.669 777.721 166.166 780.34 168.805 775.479C173.283 773.764 163.792 774.039 162.424 774.448C157.963 776.846 152.837 777.791 147.74 778.263C142.454 778.717 137.045 779.466 131.783 778.497C130.113 774.265 138.37 770.518 142.379 769.78C155.26 766.511 168.336 761.617 181.834 763.206C186.977 762.698 190.467 771.682 183.458 771.075C184.703 773.611 195.096 770.747 191.573 766.102C188.382 764.791 186.149 760.746 191.159 760.088C197.929 758.461 205.215 759.287 211.688 761.713C215.415 762.825 208.625 766.689 213.432 765.935C228.582 765.437 243.584 762.932 258.714 762.04C278.81 760.551 298.945 759.157 319.101 759.243C324.431 759.501 328.444 755.326 329.679 750.428C331.586 744.643 334.216 738.026 331.65 732.073C329.935 728.954 323.14 728.296 327.605 733.261L327.603 733.261ZM123.543 783.527C122.363 786.566 115.603 790.171 113.289 788.276C115.399 786.15 120.723 779.26 123.543 783.527ZM242.373 732.777C237.66 734.913 247.472 734.33 248.947 733.619C251.598 733.414 253.71 730.517 249.504 731.328C247.078 731.44 244.637 731.888 242.373 732.777ZM232.864 734.361C232.889 738.93 240.172 732.732 234.679 732.902C233.939 733.177 233.291 733.696 232.864 734.361ZM287.12 735.477C289.654 735.841 294.628 736.092 295.81 735.024C293.653 734.917 286.535 734.298 287.12 735.477ZM218.137 736.767C220.808 740.024 228.118 736.433 229.478 734.981C225.685 735.411 221.837 735.812 218.137 736.767ZM106.877 758.132C108.128 762.436 114.902 757.012 109.254 756.547C108.301 756.546 106.951 756.991 106.877 758.132ZM320.817 765.637C325.443 768.407 329.978 773.143 330.455 778.754C332.686 785.268 337.643 775.88 332.088 774.595C332.002 768.966 326.414 764.931 320.817 764.659C319.047 764.649 318.629 764.906 320.817 765.637ZM196.867 769.598C199.329 772.927 206.341 767.306 200.127 767.741C198.496 767.98 190.854 767.11 196.867 769.598ZM227.322 781.997C229.208 787.178 232.627 777.24 228.292 780.024C227.786 780.559 227.351 781.236 227.322 781.997ZM117.182 800.92C114.034 807.343 125.156 803.741 122.032 799.675C120.428 798.998 118.214 799.467 117.182 800.92ZM297.382 804.946C303.139 806.977 309.49 806.708 315.216 809.011C319.918 809.693 323.017 813.461 326.513 815.31C331.833 816.231 333.782 822.469 337.165 824.621C338.755 820.263 334.496 815.644 331.94 812.191C324.455 804.21 312.564 803.963 302.377 804.236C300.796 804.455 298.693 804.105 297.382 804.946ZM205.931 805.674C208.613 810.103 214.773 804.101 208.215 804.089C207.362 804.082 205.277 804.335 205.931 805.674ZM216.76 808.119C216.98 812.019 225.97 808.289 220.352 805.97C218.795 805.147 216.631 806.244 216.76 808.119ZM177.802 811.478C179.995 812.782 184.433 810.48 179.783 810.678C179.414 810.674 176.269 810.684 177.802 811.478ZM271.744 813.536C267.252 817.816 277.803 816.168 280.522 816.773C288.445 816.853 296.487 817.475 304.336 816.352C300.263 814.661 295.359 814.834 290.904 814.28C285.373 813.831 279.803 813.254 274.376 812.275C273.437 812.549 272.573 813.027 271.744 813.536ZM251.096 815.05C254.824 817.206 260.159 816.783 264.27 815.614C262.57 812.614 255.694 813.549 252.167 814.24C251.798 814.418 251.172 814.542 251.096 815.05ZM165.52 815.182C169.432 821.286 169.466 809.213 165.52 815.182ZM152.842 818.302C153.981 821.136 160.608 816.176 155.219 816.767C154.284 816.772 152.928 817.173 152.842 818.302ZM5.33209 460.862C5.58398 465.63 2.51781 460.4 5.01465 459.217L5.22162 459.756L5.33209 460.862ZM6.06635 473.909C7.29145 485.09 5.69413 496.353 5.62158 507.567C4.984 510.123 6.68779 517.558 3.94159 517.311C1.68459 510.119 2.1176 502.355 1.9541 494.889C2.43748 488.459 1.91948 481.973 2.62866 475.57C2.75656 473.409 4.92645 469.527 6.06635 473.909ZM390.446 541.419C390.704 543.358 390.049 548.926 388.639 544.141C387.747 541.837 386.187 534.574 389.58 535.215C390.421 537.149 390.433 539.344 390.446 541.419ZM390.51 565.097C389.833 569.098 391.91 577.099 387.65 578.125C385.476 573.864 386.791 568.753 387.098 564.18C387.78 562.011 387.448 555.619 389.744 555.873C390.555 558.862 390.426 562.026 390.51 565.097Z" fill="black"/>
</svg>
